<svg width="24" height="25" viewBox="0 0 24 25" fill="none" xmlns="http://www.w3.org/2000/svg">
<path d="M12.7269 4.18725C12.8171 4.09178 12.8876 3.97947 12.9344 3.85674C12.9812 3.73401 13.0034 3.60327 12.9997 3.47196C12.996 3.34066 12.9664 3.21138 12.9128 3.09149C12.8591 2.97161 12.7823 2.86347 12.6869 2.77325C12.5914 2.68303 12.4791 2.6125 12.3563 2.56569C12.2336 2.51887 12.1029 2.49669 11.9716 2.5004C11.8403 2.50411 11.711 2.53365 11.5911 2.58733C11.4712 2.64101 11.3631 2.71778 11.2729 2.81325L2.77285 11.8132C2.59732 11.9989 2.49951 12.2447 2.49951 12.5002C2.49951 12.7558 2.59732 13.0016 2.77285 13.1872L11.2729 22.1882C11.3625 22.2858 11.4706 22.3646 11.5909 22.42C11.7112 22.4754 11.8414 22.5064 11.9738 22.5111C12.1062 22.5158 12.2382 22.4942 12.3621 22.4474C12.4861 22.4007 12.5995 22.3298 12.6959 22.2388C12.7922 22.1479 12.8695 22.0387 12.9232 21.9176C12.977 21.7965 13.0062 21.666 13.009 21.5335C13.0119 21.4011 12.9885 21.2694 12.94 21.1461C12.8916 21.0228 12.8191 20.9103 12.7269 20.8153L4.87485 12.5002L12.7269 4.18725Z" fill="black"/>
</svg>
